{
  "extensionsUsed": [
    "KHR_materials_transmission",
    "KHR_materials_clearcoat",
    "KHR_materials_ior",
    "KHR_materials_specular",
    "KHR_materials_emissive_strength",
    "KHR_texture_transform"
  ],
  "accessors": [
    {
      "bufferView": 0,
      "componentType": 5126,
      "count": 105,
      "type": "VEC3",
      "max": [
        158.75177,
        0.0,
        104.973564
      ],
      "min": [
        -158.22878,
        0.0,
        -104.973564
      ]
    },
    {
      "bufferView": 1,
      "componentType": 5125,
      "count": 504,
      "type": "SCALAR",
      "max": [
        104.0
      ],
      "min": [
        0.0
      ]
    },
    {
      "bufferView": 2,
      "componentType": 5126,
      "count": 105,
      "type": "VEC3",
      "max": [
        0.0,
        -1.0,
        0.0
      ],
      "min": [
        0.0,
        -1.0,
        0.0
      ]
    }
  ],
  "asset": {
    "version": "2.0"
  },
  "buffers": [
    {
      "uri": "data:application/octet-stream;base64,",
      "byteLength": 1260
    },
    {
      "uri": "data:application/octet-stream;base64,",
      "byteLength": 2016
    },
    {
      "uri": "data:application/octet-stream;base64,",
      "byteLength": 1260
    }
  ],
  "bufferViews": [
    {
      "buffer": 0,
      "byteLength": 1260,
      "target": 34962
    },
    {
      "buffer": 1,
      "byteLength": 2016,
      "target": 34963
    },
    {
      "buffer": 2,
      "byteLength": 1260,
      "target": 34962
    }
  ],
  "materials": [
    {
      "extensions": {
        "KHR_materials_transmission": {},
        "KHR_materials_clearcoat": {},
        "KHR_materials_ior": {
          "ior": 1.0
        },
        "KHR_materials_specular": {
          "specularFactor": 0.5,
          "specularColorFactor": [
            1.0,
            1.0,
            1.0
          ]
        }
      },
      "pbrMetallicRoughness": {
        "baseColorFactor": [
          0.95736957,
          0.95736957,
          0.95736957,
          1.0
        ],
        "metallicFactor": 0.0
      }
    }
  ],
  "meshes": [
    {
      "primitives": [
        {
          "attributes": {
            "POSITION": 0,
            "NORMAL": 2
          },
          "indices": 1,
          "material": 0
        }
      ]
    }
  ],
  "nodes": [
    {
      "mesh": 0
    }
  ],
  "samplers": [
    {
      "magFilter": 9729,
      "minFilter": 9729
    }
  ],
  "scene": 0,
  "scenes": [
    {
      "nodes": [
        0
      ],
      "extensions": {}
    }
  ],
  "extensions": {}
}